<svg width="224" height="185" viewBox="0 0 224 185" fill="none" xmlns="http://www.w3.org/2000/svg">
<path d="M77.44 184.325C120.209 184.325 154.88 182.1 154.88 179.355C154.88 176.61 120.209 174.385 77.44 174.385C34.6711 174.385 0 176.61 0 179.355C0 182.1 34.6711 184.325 77.44 184.325Z" fill="#8A0604"/>
<path d="M158.43 39.6452C159.2 38.2252 161.14 36.7552 159.1 37.5352C156.3 38.6052 152.38 37.4152 149.82 40.0352C149.52 40.3452 149.29 40.6152 149.11 40.8552C147.73 42.7052 148.97 43.0252 141.67 44.9152C141.55 44.9452 141.43 44.9752 141.31 45.0152C134.07 46.9852 135.24 49.6252 132.84 46.1152C132.64 45.8252 132.41 45.4852 132.15 45.0952C131.7 44.4252 131.26 43.8052 130.83 43.2352L116.86 45.0552C117.71 45.8452 118.79 46.7852 119.97 47.7852C123.12 50.4252 127.04 53.4052 129.53 54.7252C133.34 56.7452 141.19 52.8852 144.28 49.7252C147.37 46.5752 154.45 46.3352 157.07 44.3152C158.15 43.4752 158.75 43.0352 158.99 42.7052C159.33 42.2352 158.99 41.9752 158.32 41.1052C158.01 40.7052 158.14 40.1752 158.42 39.6452H158.43ZM83.51 52.5252L111.73 48.8552C112.13 47.5952 112.53 46.4552 112.95 45.5552L83.16 49.4352L83.51 52.5252ZM52.52 123.955C52.24 124.105 51.99 124.255 51.79 124.415C52.19 124.165 52.46 123.985 52.52 123.955Z" fill="#8A0604"/>
<path d="M174.15 96.7152C162.62 84.6352 148.29 89.9552 143.3 92.2452C142.9 91.6552 142.45 91.0952 141.94 90.5652C134.09 82.2652 125.97 75.5752 110.63 76.4652C108.08 76.6152 105.41 76.8152 102.7 77.0152C103.07 76.0552 103.47 74.9152 103.85 73.6352C105.04 69.6552 102.18 69.8852 106.11 65.1352C110.04 60.3752 108.25 59.3052 110.21 53.5952C110.76 51.9952 111.25 50.3352 111.73 48.8552L83.51 52.5252L83.16 49.4352L112.95 45.5552C113.79 43.7452 114.72 42.9352 115.98 44.1952C116.23 44.4452 116.53 44.7352 116.87 45.0452L130.84 43.2252C128 39.4752 125.49 37.6852 123.06 36.3452C120.26 34.7952 122.05 31.0452 120.26 29.5652C118.48 28.0752 114.37 22.1252 113.66 19.8152C112.95 17.4952 118.54 12.9752 119.49 8.51524C120.44 4.05524 124.43 3.75524 122.29 2.62524C120.15 1.49524 117.35 -1.06476 113.79 0.485243C110.22 2.03524 105.82 0.655243 103.28 0.795243C100.74 0.925243 102.34 1.30524 100.85 3.49524C99.7 5.18524 100.39 5.69524 100.49 6.19524C101.17 7.55524 102.57 9.65524 105.11 10.9852C109.13 13.0952 109.18 14.5552 109.18 14.5552C109.18 14.5552 107.6 12.9552 105.82 12.5052C104.35 12.1352 101.99 9.04524 100.27 8.11524C100.32 8.59524 100.3 9.16524 99.82 9.84524C98.77 11.3352 97.48 11.7652 97.57 12.3252C97.66 12.8852 98.55 12.7752 98.1 13.7952C97.65 14.8252 98.26 18.2152 98.26 18.2152C98.26 18.2152 98.86 18.7952 96.37 18.6852C93.87 18.5752 93.25 19.6852 91.2 24.5552C89.15 29.4152 78 33.0752 76.7 35.0552C75.41 37.0452 70.5 40.6052 67.64 42.2152C64.78 43.8152 63.05 43.2452 62.78 45.2452C62.51 47.2552 61.53 47.8752 61.75 49.6652C61.97 51.4452 65.32 51.3152 65.32 51.3152C65.32 51.3152 67.5901 49.6152 68.4901 48.2852C69.3801 46.9452 70.32 44.7152 76.47 42.8452C82.63 40.9752 85.39 37.8452 85.39 37.8452C85.39 37.8452 90.74 33.5652 91.1 35.6152C91.46 37.6652 90.83 39.0052 84.5 42.3052C78.17 45.6052 81.38 46.8552 81.56 50.0652C81.74 53.2752 79.24 58.4452 76.03 61.3052C72.82 64.1552 75.94 65.6752 75.05 67.9952C74.47 69.5152 70.6 70.4552 68 70.9352C66.92 69.1352 66.19 66.9952 65.45 64.4352C63.08 56.2552 57.77 47.3752 53.93 44.8152C54.54 41.1952 52.4901 38.6252 52.4901 38.6252C52.3601 39.9052 50.32 41.9052 49.16 42.9452C46.97 42.3152 44.5601 41.7952 42.7401 41.4252C42.4801 40.5552 42.1601 39.6152 41.7401 38.6552C40.2201 35.1352 36.34 34.8152 36.34 34.8152C36.34 34.8152 36.79 35.2152 36.79 38.2452C36.79 40.4352 35.79 43.7552 35.23 45.4252L24.93 57.2952L21.35 62.6352C16.14 67.5652 10.78 72.5652 7.87 79.2152C7.65 79.7252 7.48002 80.1852 7.40002 80.5852C7.40002 80.5852 8.25001 82.3552 9.45001 83.5552C9.81001 83.9252 10.21 84.2352 10.63 84.4252C10.81 84.5052 11 84.5652 11.18 84.6052C12.03 84.7552 12.53 84.6052 12.93 84.4252H14.23C14.23 84.4252 16.46 87.5452 18.51 87.0952C19.26 86.9352 19.78 86.3252 20.27 85.7852C21.02 84.9652 21.85 84.3352 22.71 83.6352C29.19 78.3552 29.9 82.7252 35.37 80.8552C36.87 80.3452 37.07 80.1352 38.52 79.4852C41.08 78.3252 40.01 75.5952 40.63 74.8852L45 94.3152C45.84 97.7752 45.47 101.425 43.95 104.655C42.19 108.395 40.87 114.235 45.19 120.205C45.19 120.205 48.4 121.185 41.53 127.075C34.66 132.965 31.45 135.815 27.26 137.335C27.26 137.335 15.13 162.845 15.13 168.205C15.13 173.565 15.31 176.775 15.31 176.775C15.31 176.775 23.7 172.755 23.96 169.365C24.23 165.975 20.66 167.135 22.35 163.215C24.04 159.285 31.72 143.235 31.72 143.235C31.72 143.235 57.5 133.065 60.18 130.655C60.18 130.655 60.52 130.745 61.18 130.865L49.38 145.285C49.38 145.285 48.4 151.085 49.38 151.975C50.36 152.865 55.36 159.555 55.54 163.125C55.72 166.695 59.82 165.175 63.21 166.335C66.6 167.495 72.22 171.595 72.76 167.945C73.29 164.285 72.58 159.115 68.48 158.225C64.38 157.335 62.4 160.725 60.93 156.615C59.47 152.515 54.92 155.545 57.06 149.475C59.2 143.405 61.61 146.085 67.77 139.665C70.42 136.905 72.29 134.585 74.06 132.715L66.61 131.245L75.64 131.165C78.44 130.875 81.57 130.385 84.98 129.585C88.59 128.745 93.32 127.575 95.33 127.085C93.81 123.605 94.23 116.495 97.02 112.715C100.08 108.575 102.52 99.3052 102.52 99.3052C103.05 102.515 101.33 106.205 99.15 112.275C96.98 118.345 99.15 126.115 99.15 126.115C99.05 126.555 97.04 135.455 98.08 142.065C99.15 148.845 97.63 155.715 93.8 161.155C89.96 166.595 80.6 176.765 80.6 176.765L71.59 179.525C71.59 179.525 71.68 180.415 74.8 181.135C77.92 181.845 87.38 180.425 87.38 180.425C87.38 180.425 88.5 179.135 90.22 177.135C91.54 177.435 94.47 177.775 96.48 175.695C99.15 172.935 94.43 172.035 100.41 167.395C106.39 162.755 106.03 160.175 108.97 158.025C111.91 155.885 119.85 155.975 122 143.835C124.14 131.705 123.07 130.545 127.26 128.225C128.77 127.395 130.02 126.035 131 124.625C133.75 123.735 136.27 122.565 138.23 120.635C143.28 115.645 147.4 105.545 145.52 97.3552C148.02 97.4952 149.97 99.4552 148.62 104.225C146.88 110.385 149.42 115.865 153.04 122.555C156.65 129.245 157.72 134.735 157.72 134.735C165.17 128.485 157.78 117.045 157.72 116.805C163.74 124.695 169 122.705 163.34 140.935C159.35 153.775 173.05 159.145 173.24 159.215C171.5 154.935 173.24 151.725 176.59 142.755C179.94 133.785 180.07 118.665 180.07 118.665C180.74 121.475 186.63 126.555 186.63 126.555C181.54 115.715 188.24 111.435 174.19 96.7152H174.15ZM52.52 123.955C52.47 123.995 52.19 124.165 51.79 124.415C51.99 124.245 52.24 124.095 52.52 123.955ZM112.41 144.985C111.24 146.455 109.5 148.625 107.87 150.645C107.62 145.575 107.27 137.815 111.96 132.495C112.37 132.035 112.8 131.605 113.25 131.215C113.77 135.495 114.3 142.605 112.41 144.985Z" fill="#8A0604"/>
<path d="M223.05 33.0253C223.05 33.8053 222.46 34.4753 221.67 34.5653L159.01 42.7153L141.33 45.0153L132.86 46.1153L120 47.7853L111.75 48.8553L83.53 52.5253L83.18 49.4353L112.97 45.5553L116.89 45.0453L130.86 43.2253L149.14 40.8453L158.45 39.6353L221.34 31.4553C222.19 31.3553 222.96 31.9753 223.06 32.8253C223.06 32.8853 223.06 32.9453 223.06 33.0053L223.05 33.0253Z" fill="#8A0604"/>
<path d="M52.52 123.955C52.47 123.995 52.19 124.165 51.79 124.415C51.99 124.245 52.24 124.095 52.52 123.955Z" fill="#8A0604"/>
</svg>
